# AST/ASF file generated using VICON BodyLanguage
# -----------------------------------------------
:version 1.10
:name VICON
:units
  mass 1.0
  length 0.45
  angle deg
:documentation
   .ast/.asf automatically generated from VICON data using
   VICON BodyBuilder and BodyLanguage model FoxedUp or BRILLIANT.MOD
:root
   order TX TY TZ RX RY RZ
   axis XYZ
   position 0 0 0  
   orientation 0 0 0 
:bonedata
  begin
     id 1 
     name lhipjoint
     direction 0.623415 -0.642378 0.445763 
     length 2.49859 
     axis 0 0 0  XYZ
  end
  begin
     id 2 
     name lfemur
     direction 0.34202 -0.939693 0  
     length 6.69689  
     axis 0 0 20  XYZ
    dof rx ry rz
    limits (-160.0 20.0)
           (-70.0 70.0)
           (-60.0 70.0)
  end
  begin
     id 3 
     name ltibia
     direction 0.34202 -0.939693 0   
     length 7.37574   
     axis 0 0 20   XYZ
    dof rx
    limits (-10.0 170.0)
  end
  begin
     id 4 
     name lfoot
     direction 0.084323 -0.231675 0.969132   
     length 2.09111   
     axis -90 7.62852e-016 20   XYZ
    dof rx rz
    limits (-45.0 90.0)
           (-70.0 20.0)
  end
  begin
     id 5 
     name ltoes
     direction 1.5357e-011 -4.21957e-011 1   
     length 1.04989   
     axis -90 7.62852e-016 20   XYZ
    dof rx
    limits (-90.0 20.0)
  end
  begin
     id 6 
     name rhipjoint
     direction -0.605402 -0.653903 0.45376   
     length 2.45455  
     axis 0 0 0  XYZ 
  end
  begin
     id 7 
     name rfemur
     direction -0.34202 -0.939693 0   
     length 6.64523   
     axis 0 0 -20   XYZ
    dof rx ry rz
    limits (-160.0 20.0)
           (-70.0 70.0)
           (-70.0 60.0)
  end
  begin
     id 8 
     name rtibia
     direction -0.34202 -0.939693 0   
     length 7.3339   
     axis 0 0 -20   XYZ
    dof rx
    limits (-10.0 170.0)
 end
 begin
     id 9 
     name rfoot
     direction -0.120854 -0.332043 0.93549   
     length 2.23135  
     axis -90 -7.62852e-016 -20   XYZ
    dof rx rz
    limits (-45.0 90.0)
           (-20.0 70.0)
  end
  begin
     id 10 
     name rtoes
     direction -1.53563e-011 -4.21914e-011 1   
     length 1.10614   
     axis -90 -7.62852e-016 -20   XYZ
    dof rx
    limits (-90.0 20.0)
  end
  begin
     id 11 
     name lowerback
     direction 0.0319682 0.998615 -0.0417941   
     length 2.02718   
     axis 0 0 0   XYZ
    dof rx ry rz
    limits (-20.0 45.0)
           (-30.0 30.0)
           (-30.0 30.0)
  end
  begin
     id 12 
     name upperback
     direction 7.63181e-005 0.995808 0.0914691   
     length 1.97539   
     axis 0 0 0   XYZ
    dof rx ry rz
    limits (-20.0 45.0)
           (-30.0 30.0)
           (-30.0 30.0)
  end
  begin
     id 13 
     name thorax
     direction -0.016423 0.993627 0.111514   
     length 2.00349   
     axis 0 0 0   XYZ
    dof rx ry rz
    limits (-20.0 45.0)
           (-30.0 30.0)
           (-30.0 30.0)
  end
  begin
     id 14 
     name lowerneck
     direction -0.174763 0.981668 -0.0760716   
     length 1.71436   
     axis 0 0 0   XYZ
    dof rx ry rz
    limits (-20.0 45.0)
           (-30.0 30.0)
           (-30.0 30.0)
  end
  begin
     id 15 
     name upperneck
     direction 0.345458 0.934587 -0.0848868   
     length 1.72805   
     axis 0 0 0   XYZ
    dof rx ry rz
    limits (-20.0 45.0)
           (-30.0 30.0)
           (-30.0 30.0)
  end
  begin
     id 16
     name head
     direction 0.13001 0.989848 -0.0574291  
     length 1.767  
     axis 0 0 0   XYZ
    dof rx ry rz
    limits (-20.0 45.0)
           (-30.0 30.0)
           (-30.0 30.0)
  end
  begin
     id 17 
     name lclavicle
     direction 0.952951 0.290122 0.0878234  
     length 3.54654  
     axis 0 0 0   XYZ
    dof ry rz
    limits (-20.0 10.0)
           (0.0 20.0)
  end
  begin
     id 18 
     name lhumerus
     direction 1 -4.48957e-011 -4.56525e-028   
     length 5.19807   
     axis 180 -30 -90   XYZ
    dof rx ry rz
    limits (-60.0 90.0)
           (-90.0 90.0)
           (-90.0 90.0)
  end
  begin
     id 19
     name lradius
     direction 1 -4.48979e-011 -2.0317e-027   
     length 3.0937   
     axis 180 -30 -90   XYZ
    dof rx
    limits (-10.0 170.0)
  end
  begin
     id 20
     name lwrist
     direction 1 -4.48953e-011 -3.05809e-027   
     length 1.54685   
     axis 8.48514e-016 90 90   XYZ
    dof ry
    limits (-180.0 0.0)
 end
  begin
     id 21 
     name lhand
     direction 1 -4.48952e-011 -6.11639e-027   
     length 0.672632   
     axis 3.9013e-015 90 90   XYZ
    dof rx rz
    limits (-90.0 90.0)
           (-45.0 45.0)
  end
  begin
     id 22 
     name lfingers
     direction 1 -4.48925e-011 -1.22426e-026   
     length 0.542293   
     axis 7.80276e-015 90 90   XYZ
    dof rx
    limits (0.0 90.0)
  end
  begin
     id 23
     name lthumb
     direction 0.707107 -6.3486e-011 0.707107   
     length 0.778628   
     axis -90 45 5.37419e-014   XYZ
    dof rx rz
    limits (-45.0 45.0)
           (-45.0 45.0)
  end
  begin
     id 24 
     name rclavicle
     direction -0.960732 0.273675 -0.0457849   
     length 3.52079  
     axis 0 0 0   XYZ 
    dof ry rz
    limits (-10.0 20.0)
           (-20.0 0.0)
  end
  begin
     id 25 
     name rhumerus
     direction -1 -4.48976e-011 -1.63613e-027  
     length 5.45222   
     axis 180 30 90   XYZ
    dof rx ry rz
    limits (-90.0 60.0)
           (-90.0 90.0)
           (-90.0 90.0)
  end
  begin
     id 26 
     name rradius
     direction -1 -4.48957e-011 -7.00033e-028   
     length 3.01284   
     axis 180 30 90   XYZ
    dof rx
    limits (-10.0 170.0)
  end
  begin
     id 27 
     name rwrist
     direction -1 -4.48983e-011 -3.05543e-027   
     length 1.50642   
     axis 8.48514e-016 -90 -90   XYZ
    dof ry
    limits (-180.0 0.0)
  end
  begin
     id 28
     name rhand
     direction -1 -4.48984e-011 -6.11072e-027   
     length 0.622296   
     axis 3.9013e-015 -90 -90   XYZ
    dof rx rz
    limits (-90.0 90.0)
           (-45.0 45.0)
  end
  begin
     id 29
     name rfingers
     direction -1 -4.48865e-011 -1.22637e-026   
     length 0.501711   
     axis 7.80276e-015 -90 -90   XYZ
    dof rx
    limits (0.0 90.0)
  end
  begin
     id 30
     name rthumb
     direction -0.707107 -6.34932e-011 0.707107   
     length 0.72036   
     axis -90 -45 -5.37419e-014   XYZ
    dof rx rz
    limits (-45.0 45.0)
           (-45.0 45.0)
  end
:hierarchy
  begin
    root lhipjoint rhipjoint lowerback
    lhipjoint lfemur
    lfemur ltibia
    ltibia lfoot
    lfoot ltoes
    rhipjoint rfemur
    rfemur rtibia
    rtibia rfoot
    rfoot rtoes
    lowerback upperback
    upperback thorax
    thorax lowerneck lclavicle rclavicle
    lowerneck upperneck
    upperneck head
    lclavicle lhumerus
    lhumerus lradius
    lradius lwrist
    lwrist lhand lthumb
    lhand lfingers
    rclavicle rhumerus
    rhumerus rradius
    rradius rwrist
    rwrist rhand rthumb
    rhand rfingers
  end

#!OML:ASF H:\Not Pregnant\Project 1\Capture day 1\Session 1\non-pregnant.ASF
:FULLY-SPECIFIED
:DEGREES
209
root -5.70884 16.4678 -12.4164 -171.668 -1.88847 -176.795
lowerback -0.16274 1.29901 4.31196
upperback -7.03167 1.4471 0.719978
thorax -7.15025 0.260467 -1.71514
lowerneck 20.2524 -7.13098 -32.0852
upperneck -9.07143 -18.8466 40.344
head 1.74367 -12.4967 20.896
rclavicle -5.31749e-015 5.56597e-015
rhumerus -46.3785 -13.6743 -72.3256
rradius 20.1548
rwrist 33.1041
rhand -2.90804 0.299106
rfingers 7.12502
rthumb 22.8022 -28.3731
lclavicle -5.31749e-015 5.56597e-015
lhumerus -49.7076 -2.33785 85.9538
lradius 29.8883
lwrist 34.3544
lhand -12.968 -9.16506
lfingers 7.12502
lthumb 13.124 20.402
rfemur -29.1836 -1.49208 28.9821
rtibia 37.9201
rfoot -14.3809 17.1008
rtoes -9.58404
lfemur -7.63157 5.22043 -16.4947
ltibia 47.8644
lfoot 20.7181 -23.6428
ltoes 9.09058
210
root -5.70763 16.4617 -12.3237 -171.534 -2.17565 -176.928
lowerback -0.414596 1.16431 4.18299
upperback -7.0872 1.23596 0.715102
thorax -7.07836 0.159285 -1.63207
lowerneck 20.1273 -7.12037 -32.1262
upperneck -8.92999 -18.8035 40.2378
head 1.77296 -12.4479 20.8334
rclavicle 1.74558e-015 -2.78299e-015
rhumerus -46.5385 -13.2833 -72.5334
rradius 20.4441
rwrist 32.5241
rhand -2.81251 0.377119
rfingers 7.12502
rthumb 22.8939 -28.2838
lclavicle 1.74558e-015 -2.78299e-015
lhumerus -49.2998 -2.424 85.8935
lradius 30.1618
lwrist 34.5857
lhand -13.0286 -9.11818
lfingers 7.12502
lthumb 13.0656 20.4526
rfemur -29.8385 -1.48587 28.8313
rtibia 38.1441
rfoot -14.2045 16.8519
rtoes -9.80482
lfemur -6.5876 4.7304 -16.7323
ltibia 45.7962
lfoot 19.7608 -23.7801
ltoes 9.66882
211
root -5.70652 16.4551 -12.2279 -171.395 -2.4758 -177.056
lowerback -0.652058 1.02646 4.05453
upperback -7.13656 1.02309 0.712601
thorax -7.00762 0.0576563 -1.54813
lowerneck 19.9891 -7.11792 -32.1614
upperneck -8.79633 -18.7656 40.1375
head 1.80528 -12.4016 20.7699
rclavicle 1.40516e-014 1.3418e-014
rhumerus -46.6644 -12.9098 -72.7469
rradius 20.7603
rwrist 31.901
rhand -2.7776 0.433401
rfingers 7.12502
rthumb 22.9274 -28.2234
lclavicle 1.40516e-014 1.3418e-014
lhumerus -48.8493 -2.50378 85.8319
lradius 30.4493
lwrist 34.7817
lhand -13.1082 -9.06068
lfingers 7.12502
lthumb 12.9889 20.515
rfemur -30.5038 -1.47416 28.6799
rtibia 38.356
rfoot -14.0076 16.5855
rtoes -10.0287
lfemur -5.6136 4.22509 -16.9584
ltibia 43.7599
lfoot 18.3517 -24.0759
ltoes 10.0155
212
root -5.7054 16.4488 -12.1288 -171.255 -2.78481 -177.177
lowerback -0.859139 0.887032 3.92673
upperback -7.18865 0.810944 0.714311
thorax -6.95668 -0.0439495 -1.46158
lowerneck 19.8518 -7.11749 -32.1934
upperneck -8.66762 -18.7294 40.0402
head 1.83708 -12.3567 20.7075
rclavicle 9.75287e-015 5.46658e-015
rhumerus -46.7757 -12.5514 -72.956
rradius 21.1012
rwrist 31.2349
rhand -2.80798 0.473285
rfingers 7.12502
rthumb 22.8982 -28.1871
lclavicle 9.75287e-015 5.46658e-015
lhumerus -48.3718 -2.58538 85.7792
lradius 30.7373
lwrist 34.9596
lhand -13.2201 -9.0343
lfingers 7.12502
lthumb 12.881 20.5482
rfemur -31.1706 -1.45346 28.5306
rtibia 38.544
rfoot -13.7789 16.3049
rtoes -10.2647
lfemur -4.70991 3.70592 -17.1654
ltibia 41.7971
lfoot 16.5097 -24.577
ltoes 9.91862
213
root -5.70411 16.4435 -12.0262 -171.112 -3.10102 -177.297
lowerback -1.03145 0.747098 3.79256
upperback -7.25126 0.600013 0.717308
thorax -6.93637 -0.14553 -1.37124
lowerneck 19.74 -7.10809 -32.2244
upperneck -8.55101 -18.6877 39.9521
head 1.86017 -12.3129 20.6561
rclavicle 6.06293e-015 3.37934e-015
rhumerus -46.885 -12.2265 -73.1448
rradius 21.4632
rwrist 30.549
rhand -2.91439 0.507091
rfingers 7.12502
rthumb 22.7961 -28.1659
lclavicle 6.06293e-015 3.37934e-015
lhumerus -47.8831 -2.6724 85.7364
lradius 31.0237
lwrist 35.1279
lhand -13.3716 -9.05887
lfingers 7.12502
lthumb 12.735 20.5328
rfemur -31.8347 -1.42239 28.3766
rtibia 38.6947
rfoot -13.5115 16.0114
rtoes -10.5081
lfemur -3.88399 3.16942 -17.3596
ltibia 39.9489
lfoot 14.2772 -25.2064
ltoes 9.24363
214
root -5.70298 16.4399 -11.9205 -170.971 -3.43074 -177.418
lowerback -1.16983 0.606204 3.65846
upperback -7.31789 0.390251 0.717395
thorax -6.93911 -0.246894 -1.28478
lowerneck 19.6558 -7.09163 -32.25
upperneck -8.45907 -18.6409 39.8789
head 1.87134 -12.2711 20.6182
rclavicle 3.10601e-016 -1.45113e-014
rhumerus -46.99 -11.9459 -73.3097
rradius 21.8466
rwrist 29.8482
rhand -3.07625 0.518325
rfingers 7.12502
rthumb 22.6408 -28.1737
lclavicle 3.10601e-016 -1.45113e-014
lhumerus -47.3795 -2.77177 85.7047
lradius 31.3197
lwrist 35.286
lhand -13.5588 -9.12563
lfingers 7.12502
lthumb 12.5545 20.4772
rfemur -32.4836 -1.4025 28.2151
rtibia 38.8018
rfoot -13.2087 15.7211
rtoes -10.7834
lfemur -3.132 2.60224 -17.5495
ltibia 38.2382
lfoot 11.6566 -25.8109
ltoes 7.5212
215
root -5.70183 16.438 -11.8112 -170.835 -3.76463 -177.541
lowerback -1.26479 0.466167 3.5208
upperback -7.39021 0.184365 0.716468
thorax -6.97206 -0.346468 -1.19795
lowerneck 19.6057 -7.06435 -32.277
upperneck -8.39062 -18.5878 39.822
head 1.87028 -12.2312 20.5971
rclavicle 2.26118e-015 6.16232e-015
rhumerus -47.0847 -11.7153 -73.4424
rradius 22.2324
rwrist 29.1482
rhand -3.29776 0.522457
rfingers 7.12502
rthumb 22.4282 -28.1954
lclavicle 2.26118e-015 6.16232e-015
lhumerus -46.8704 -2.88251 85.688
lradius 31.6208
lwrist 35.4518
lhand -13.7897 -9.25077
lfingers 7.12502
lthumb 12.3318 20.3656
rfemur -33.1155 -1.37732 28.0445
rtibia 38.8657
rfoot -12.8684 15.426
rtoes -11.0964
lfemur -2.45758 2.00809 -17.7446
ltibia 36.6637
lfoot 8.72946 -26.2309
ltoes 4.756
216
root -5.7013 16.4371 -11.6982 -170.706 -4.1094 -177.678
lowerback -1.32543 0.3219 3.37358
upperback -7.45858 -0.0244191 0.71094
thorax -7.01988 -0.446365 -1.11062
lowerneck 19.5752 -7.03049 -32.2991
upperneck -8.34662 -18.5262 39.778
head 1.85727 -12.1905 20.5879
rclavicle 9.38015e-015 -9.93923e-017
rhumerus -47.157 -11.5562 -73.5287
rradius 22.6219
rwrist 28.4857
rhand -3.54536 0.514052
rfingers 7.12502
rthumb 22.1905 -28.2322
lclavicle 9.38015e-015 -9.93923e-017
lhumerus -46.3376 -2.99546 85.6821
lradius 31.9258
lwrist 35.6109
lhand -14.0405 -9.45587
lfingers 7.12502
lthumb 12.0901 20.1748
rfemur -33.7364 -1.37235 27.8501
rtibia 38.898
rfoot -12.4984 15.1445
rtoes -11.4679
lfemur -1.85585 1.38523 -17.9745
ltibia 35.1948
lfoot 5.62526 -26.3535
ltoes 1.09288
217
root -5.70143 16.4366 -11.5818 -170.589 -4.46367 -177.827
lowerback -1.35303 0.177189 3.22398
upperback -7.50959 -0.229432 0.699512
thorax -7.06708 -0.542533 -1.02848
lowerneck 19.5397 -7.00688 -32.3131
upperneck -8.33194 -18.4712 39.75
head 1.84204 -12.1545 20.5838
rclavicle 1.46231e-014 -1.02374e-014
rhumerus -47.1848 -11.4712 -73.5787
rradius 23.0049
rwrist 27.8449
rhand -3.82677 0.495328
rfingers 7.12502
rthumb 21.9203 -28.2828
lclavicle 1.46231e-014 -1.02374e-014
lhumerus -45.7534 -3.12132 85.6896
lradius 32.2255
lwrist 35.7591
lhand -14.3155 -9.69929
lfingers 7.12502
lthumb 11.8249 19.9469
rfemur -34.3444 -1.3904 27.6357
rtibia 38.9115
rfoot -12.1063 14.8801
rtoes -11.8957
lfemur -1.31427 0.740048 -18.243
ltibia 33.7866
lfoot 2.58068 -26.1569
ltoes -2.75043
